<svg width="81" height="180" viewBox="0 0 81 180" fill="none" xmlns="http://www.w3.org/2000/svg">
<path d="M47.5629 1.38844C42.7246 4.21738 41.109 10.4281 43.9546 15.2605C46.8032 20.0913 53.0341 21.7141 57.8725 18.8852C62.7131 16.057 64.3272 9.84328 61.4831 5.01389C58.6353 0.180742 52.4021 -1.44279 47.5629 1.38844ZM45.7069 30.8021C48.6233 31.2764 51.6089 31.0782 54.3817 30.0601L63.5822 26.6749C68.3269 24.9297 72.3021 21.4882 74.5061 16.9466C75.0291 15.8654 75.6802 14.8274 76.461 13.8508C82.3122 6.52599 93.1554 5.50562 100.316 11.7562C106.707 17.336 107.805 26.9787 102.833 33.8279C96.1396 43.0565 86.7806 40.5665 81.491 37.9878C78.5213 36.5422 75.0874 36.3909 71.9899 37.5307L64.2229 40.3864C59.3841 42.1649 57.6238 48.0822 60.6977 52.2195L64.265 57.0186C68.4641 62.6646 74.8081 66.2498 81.7852 67.2284C85.334 67.7268 88.8014 69.1511 91.8097 71.5431C100.895 78.7686 102.29 92.0482 94.8047 100.972C87.8605 109.253 74.7844 110.635 66.2207 103.999C60.0148 99.1901 57.301 91.5919 58.4474 84.3965C59.5455 77.4887 57.9187 70.42 53.7359 64.7943L46.9648 55.6854C45.1726 53.273 42.8026 51.3337 40.0433 50.1418C39.2305 49.7927 38.4557 49.3321 37.7326 48.7565C34.5445 46.2215 33.2861 42.1684 34.1642 38.463L34.4896 37.3746C34.8557 36.3572 35.3894 35.3779 36.1029 34.4859C38.4767 31.5131 42.1897 30.228 45.7069 30.8021Z" fill="url(#paint0_linear_10476_555)"/>
<path d="M48.0058 184.43C43.1674 187.259 41.5518 193.469 44.3997 198.302C47.2437 203.132 53.4769 204.755 58.3153 201.926C63.1567 199.096 64.7715 192.888 61.9237 188.054C59.0781 183.222 52.8472 181.599 48.0058 184.43ZM60.6 173.952C57.7111 173.327 54.7172 173.376 51.8965 174.25L42.5326 177.162C37.7034 178.663 33.5566 181.896 31.1243 186.32C30.5452 187.371 29.841 188.377 29.0108 189.31C22.792 196.326 11.9099 196.791 5.08008 190.186C-1.01783 184.288 -1.61902 174.603 3.69482 168.014C10.8521 159.143 20.074 162.104 25.2258 164.95C28.1169 166.547 31.5405 166.874 34.6914 165.893L42.5971 163.437C47.5189 161.907 49.5842 156.089 46.7254 151.801L43.4079 146.828C39.5054 140.974 33.348 137.071 26.4328 135.739C22.9117 135.057 19.5249 133.459 16.6425 130.918C7.93744 123.237 7.22392 109.907 15.1581 101.377C22.5203 93.4619 35.6498 92.7485 43.8629 99.8107C49.8181 104.931 52.1348 112.656 50.6245 119.786C49.1708 126.626 50.4326 133.769 54.3226 139.599L60.6182 149.042C62.2821 151.54 64.5517 153.596 67.249 154.928C68.038 155.32 68.7905 155.819 69.4821 156.43C72.5361 159.124 73.5887 163.235 72.5192 166.89L72.1409 167.962C71.7203 168.959 71.1374 169.91 70.3784 170.763C67.854 173.612 64.081 174.704 60.6 173.952Z" fill="url(#paint1_linear_10476_555)"/>
<defs>
<linearGradient id="paint0_linear_10476_555" x1="57.4738" y1="-3.30752" x2="32.995" y2="194.019" gradientUnits="userSpaceOnUse">
<stop stop-color="#30AB4C"/>
<stop offset="0.853177" stop-opacity="0"/>
</linearGradient>
<linearGradient id="paint1_linear_10476_555" x1="57.4738" y1="-3.30752" x2="32.995" y2="194.019" gradientUnits="userSpaceOnUse">
<stop stop-color="#30AB4C"/>
<stop offset="0.853177" stop-opacity="0"/>
</linearGradient>
</defs>
</svg>
