<svg width="133" height="154" viewBox="0 0 133 154" fill="none" xmlns="http://www.w3.org/2000/svg">
<path d="M1.67773 24.3076C-0.454978 29.4907 2.02551 35.4093 7.21822 37.5272C12.4124 39.642 18.3514 37.155 20.4842 31.9719C22.6191 26.788 20.1356 20.8679 14.9459 18.7515C9.75096 16.6345 3.80963 19.1223 1.67773 24.3076ZM18.0341 48.8245C20.6409 47.4336 22.8952 45.466 24.4831 42.9752L29.7475 34.7051C32.4628 30.4407 33.5377 25.2939 32.537 20.3458C32.2974 19.1689 32.1859 17.9487 32.2147 16.6987C32.4272 7.32618 40.4319 -0.0591685 49.9156 0.570792C58.3812 1.13333 65.1002 8.13628 65.2991 16.5972C65.5708 27.9945 56.6184 31.6883 50.8483 32.8444C47.6102 33.4953 44.7876 35.4568 43.0153 38.2411L38.5698 45.221C35.7999 49.569 37.9875 55.342 42.9404 56.7687L48.6868 58.4224C55.4491 60.3668 62.6679 59.3718 68.8098 55.9201C71.9342 54.1649 75.5552 53.1955 79.3978 53.274C91.0032 53.5123 100.164 63.2271 99.6215 74.8622C99.1192 85.6574 89.558 94.6839 78.7246 94.5985C70.8738 94.5367 64.1091 90.1393 60.6585 83.7221C57.3438 77.5628 51.7646 72.9276 45.0276 70.9896L34.1203 67.8506C31.2325 67.0187 28.1719 66.9133 25.255 67.6383C24.397 67.8535 23.5015 67.9569 22.5775 67.9375C18.5053 67.8544 15.0472 65.394 13.4992 61.9149L13.0981 60.852C12.7724 59.8209 12.6031 58.7186 12.6298 57.5767C12.7153 53.7733 14.8889 50.5003 18.0341 48.8245Z" fill="url(#paint0_linear_10476_556)"/>
<path d="M113.001 169.605C110.868 174.788 113.349 180.707 118.544 182.824C123.733 184.94 129.675 182.453 131.808 177.27C133.942 172.083 131.462 166.167 126.267 164.05C121.074 161.932 115.135 164.419 113.001 169.605ZM116.664 153.637C113.988 154.892 111.637 156.746 109.924 159.151L104.242 167.144C101.312 171.265 99.9742 176.35 100.722 181.343C100.898 182.53 100.948 183.757 100.854 185.002C100.162 194.352 91.7897 201.319 82.3536 200.207C73.9284 199.214 67.5789 191.876 67.8102 183.415C68.1235 172.02 77.2528 168.784 83.0749 167.924C86.3426 167.442 89.2636 165.626 91.1744 162.936L95.9728 156.19C98.9594 151.989 97.0746 146.11 92.201 144.433L86.5483 142.49C79.8952 140.2 72.6327 140.829 66.3254 143.962C63.1121 145.555 59.4497 146.337 55.6167 146.064C44.0375 145.233 35.3881 135.064 36.5269 123.471C37.583 112.713 47.5919 104.186 58.4051 104.823C66.2454 105.284 72.771 110.023 75.8927 116.609C78.8836 122.93 84.2172 127.845 90.8456 130.124L101.577 133.816C104.415 134.794 107.466 135.053 110.419 134.477C111.284 134.31 112.185 134.251 113.105 134.317C117.167 134.609 120.497 137.24 121.862 140.795L122.211 141.877C122.481 142.925 122.594 144.035 122.507 145.173C122.227 148.969 119.889 152.125 116.664 153.637Z" fill="url(#paint1_linear_10476_556)"/>
<defs>
<linearGradient id="paint0_linear_10476_556" x1="6.71252" y1="14.5645" x2="106.877" y2="186.332" gradientUnits="userSpaceOnUse">
<stop stop-color="#30AB4C"/>
<stop offset="0.853177" stop-opacity="0"/>
</linearGradient>
<linearGradient id="paint1_linear_10476_556" x1="6.71252" y1="14.5645" x2="106.877" y2="186.332" gradientUnits="userSpaceOnUse">
<stop stop-color="#30AB4C"/>
<stop offset="0.853177" stop-opacity="0"/>
</linearGradient>
</defs>
</svg>
